<?xml version="1.0" encoding="UTF-8"?>
<svg width="430px" height="363px" viewBox="0 0 430 363" version="1.1" xmlns="http://www.w3.org/2000/svg">
    <g id="hat" transform="translate(-24.000000, -26.000000)">
        <path d="M381.5,377.5 L381.5,238.572387 C372.322968,234.719264 363.528557,226.423219 354.90273,214.715108 C349.30602,207.118515 343.838817,198.069991 338.829039,188.294398 C330.605645,201.301682 319.846818,214.215346 307.917691,225.207184 C287.121912,244.369009 264.893796,256 245,256 C215.442096,256 183.204769,239.594736 152.349846,212.096166 C149.897452,213.833015 146.904888,216.096004 143.030152,219.119205 C142.650077,219.415752 142.258636,219.72183 141.850803,220.041325 C140.512444,221.089791 136.039458,224.612773 135.752517,224.83824 C133.393117,226.692157 131.703829,228.004276 130.195791,229.147016 C129.593551,229.603372 129.029792,230.025262 128.5,230.415358 L128.5,377.5 L381.5,377.5 Z M112.531105,213.515731 C112.530069,213.516251 112.530195,213.51614 112.531398,213.515422 C112.532862,213.514549 112.534339,213.513667 112.535829,213.512775 Z" id="Combined-Shape" stroke="#000000" stroke-width="23"></path>
        <path d="M244,253 C204.005929,253 173.5,226 154.5,207.5 C102,266 35,194.630495 35,151 C35,107.369505 85.271525,64 140.5,64 C170.384752,64 200.675606,93.5963777 219,110.013838 C207,75.5138383 250.42734,37 298.5,37 C347.3772,37 387,65.4299184 387,100.5 C387,103.733417 386.663182,106.910389 386.013347,110.013838 C386.507665,110.004628 387.003232,110 387.5,110 C426.436075,110 442.5,139.929918 442.5,175 C442.5,210.070082 426.436075,237 387.5,237 C368.733013,237 347,214 338,184 C324.901071,215.572222 288.344278,253 244,253 Z" id="Combined-Shape" stroke="#000000" stroke-width="22"></path>
        <rect id="Rectangle" stroke-opacity="0" stroke="#979797" x="0" y="0" width="479" height="419"></rect>
    </g>
</svg>
