<?xml version="1.0" encoding="UTF-8"?>
<svg width="430px" height="406px" viewBox="0 0 430 406" version="1.1" xmlns="http://www.w3.org/2000/svg" xmlns:xlink="http://www.w3.org/1999/xlink">
    <!-- Generator: Sketch 50.2 (55047) - http://www.bohemiancoding.com/sketch -->
    <title>hat</title>
    <desc>Created with Sketch.</desc>
    <defs></defs>
    <g id="Page-1" stroke="none" stroke-width="1" fill="none" fill-rule="evenodd">
        <g id="hat" transform="translate(-24.000000, -26.000000)">
            <path d="M113,261 C116.039714,262.438436 105.796122,339.787597 113,371.5 C118.974581,397.800875 124.094022,379.455682 126.5,380.5 C131.840972,382.818255 121.404453,258.998937 126.5,261 C167.330301,277.03439 218.918321,297 247.345555,297 C271.012222,297 295.897037,289.166667 322,273.5 C313.70762,365.404153 311.20762,412.404153 314.5,414.5 C317.79238,416.595847 339.79238,416.595847 380.5,414.5 L380.5,240.5 L343,188.5 L274,247.37157 L214.5,247.37157 L159.5,215.5 C131.058765,220.109183 115.558765,225.442517 113,231.5 C104.588147,251.413775 104.588147,238.913775 113,261 Z" id="Path-2" fill="#E5C5B4" opacity="0.747823661"></path>
            <path d="M92,232 L34,168 C34,142.666667 34,130 34,130 C34,130 74.5,127 92,154 C109.5,181 126,168 144.5,168 C163,168 187,206.5 227,198 C267,189.5 300.5,154 325,154 C349.5,154 363,184 384.5,198 C398.833333,207.333333 406.166667,218.666667 406.5,232 L371,232 L339.5,180.950413 L283.5,248 L210.5,248 L157.5,214.5 L92,232 Z" id="Path-3" fill="#E5C5B4" opacity="0.749888393"></path>
            <path d="M381.5,420 L381.5,243.230868 C372.187614,239.142739 363.35792,230.245839 354.688073,217.648525 C349.16457,209.622859 343.7661,200.072359 338.812356,189.752608 C330.652709,203.498268 320.004755,217.153177 308.200761,228.796343 C287.381604,249.331841 265.095751,261.814978 245,261.814978 C216.027338,261.814978 184.641371,245.134818 154.500149,217.055514 C153.445446,218.284395 152.415473,219.431368 151.3519,220.551635 C146.606677,225.549802 141.691931,229.480116 136.111011,232.24896 C128.10857,236.219185 118.800845,238.439914 108.807554,239.41668 C107.859423,239.509352 106.921013,239.588793 106,239.656067 L106,420 L381.5,420 Z" id="Combined-Shape" stroke="#000000" stroke-width="23"></path>
            <path d="M244,253 C204.005929,253 173.5,226 154.5,207.5 C102,266 35,194.630495 35,151 C35,107.369505 85.271525,64 140.5,64 C170.384752,64 200.675606,93.5963777 219,110.013838 C207,75.5138383 250.42734,37 298.5,37 C347.3772,37 387,65.4299184 387,100.5 C387,103.733417 386.663182,106.910389 386.013347,110.013838 C386.507665,110.004628 387.003232,110 387.5,110 C426.436075,110 442.5,139.929918 442.5,175 C442.5,210.070082 426.436075,237 387.5,237 C368.733013,237 347,214 338,184 C324.901071,215.572222 288.344278,253 244,253 Z" id="Combined-Shape" stroke="#000000" stroke-width="22"></path>
            <rect id="Rectangle" stroke-opacity="0" stroke="#979797" x="0" y="0" width="479" height="458"></rect>
        </g>
    </g>
</svg>